<?xml version="1.0" standalone="no"?>
<!DOCTYPE svg PUBLIC "-//W3C//DTD SVG 20010904//EN"
 "http://www.w3.org/TR/2001/REC-SVG-20010904/DTD/svg10.dtd">
<svg version="1.0" xmlns="http://www.w3.org/2000/svg"
 width="2048.000000pt" height="2048.000000pt" viewBox="0 0 2048.000000 2048.000000"
 preserveAspectRatio="xMidYMid meet">

<g transform="translate(0.000000,2048.000000) scale(0.100000,-0.100000)"
fill="#000000" stroke="none">
<path d="M10218 14978 c-8 -7 -89 -94 -180 -194 -218 -238 -438 -441 -670
-617 -361 -274 -835 -520 -1295 -672 -460 -153 -853 -223 -1434 -255 -206 -11
-243 -20 -263 -59 -26 -49 -44 -179 -67 -466 -12 -158 -27 -615 -21 -629 3 -5
240 -6 539 -3 l535 5 18 -21 c16 -20 249 -309 276 -343 9 -12 134 -14 793 -14
l782 0 157 -145 157 -144 496 -1 495 0 32 -33 32 -33 0 -341 0 -341 -82 -6
c-46 -3 -143 -9 -215 -12 l-133 -7 0 -598 0 -599 99 0 c94 0 99 1 104 23 3 12
6 238 7 501 0 264 2 481 3 482 1 2 76 8 167 14 196 13 235 22 244 53 3 12 6
109 6 215 l0 192 233 0 233 0 -3 98 -3 97 -230 3 -230 2 0 173 0 172 -90 73
-89 72 -497 0 -497 0 -75 68 c-41 37 -93 83 -115 103 l-40 35 129 152 129 152
407 0 406 0 22 -44 c48 -99 151 -160 270 -160 126 0 220 59 282 176 31 60 32
182 1 249 -27 60 -92 125 -152 152 -71 33 -199 31 -267 -5 -56 -29 -116 -90
-141 -143 l-17 -35 -455 0 -456 -1 -35 -44 c-19 -24 -82 -99 -140 -167 -58
-68 -118 -140 -134 -160 l-28 -38 -732 1 -731 0 -148 185 -149 184 -261 0
c-144 0 -278 3 -297 6 l-35 6 3 86 c2 48 7 137 10 197 l7 110 125 12 c286 28
576 78 864 149 238 59 288 74 501 151 640 232 1241 594 1757 1057 l107 96 63
-58 c466 -429 1075 -810 1669 -1045 439 -174 989 -303 1486 -348 l131 -13 6
-55 c25 -233 32 -812 15 -1176 -33 -694 -153 -1411 -326 -1940 -319 -979 -822
-1754 -1583 -2439 -392 -353 -816 -644 -1282 -881 l-178 -90 -192 97 c-717
361 -1356 872 -1875 1498 -671 809 -1098 1849 -1243 3025 -25 205 -50 487 -43
498 2 4 402 7 889 7 l884 0 0 95 0 95 -1180 0 -1180 0 0 -42 c0 -55 36 -494
50 -613 138 -1151 478 -2117 1043 -2965 477 -713 1155 -1363 1917 -1835 270
-167 657 -368 839 -435 84 -31 84 -31 135 -14 253 83 789 371 1146 617 345
238 552 409 849 701 654 644 1108 1343 1446 2226 223 583 394 1432 440 2180
41 677 29 1409 -31 1814 -24 167 -36 175 -284 187 -436 22 -873 87 -1197 179
-636 180 -1181 458 -1683 859 -159 127 -465 422 -622 599 -55 61 -103 112
-107 112 -4 0 -14 -6 -23 -12z m586 -2642 c103 -43 102 -179 -1 -223 -51 -21
-114 2 -139 49 -32 62 -9 143 48 171 41 20 50 21 92 3z"/>
<path d="M10775 12959 c-283 -38 -572 -201 -731 -413 l-46 -61 133 -5 134 -5
50 46 c102 96 251 175 401 215 109 28 311 25 435 -8 209 -56 381 -173 513
-348 110 -147 185 -367 186 -547 0 -55 4 -67 29 -95 l29 -33 134 3 c109 2 147
-1 213 -18 272 -70 462 -264 541 -550 27 -99 25 -291 -4 -394 -77 -269 -267
-460 -525 -526 -70 -17 -127 -19 -901 -21 l-826 -2 0 -109 0 -109 843 4 c824
3 844 3 922 24 184 50 313 122 435 243 198 196 299 455 287 735 -11 253 -98
466 -263 644 -78 84 -161 145 -279 201 -118 57 -200 79 -333 88 l-96 7 -13 81
c-84 546 -530 940 -1083 959 -63 2 -146 0 -185 -6z"/>
<path d="M7998 12208 c-2 -51 -2 -96 0 -100 2 -5 149 -8 328 -8 l324 0 0 100
0 100 -324 0 -325 0 -3 -92z"/>
<path d="M8840 12200 l0 -101 106 3 107 3 1 97 1 98 -107 0 -108 0 0 -100z"/>
<path d="M11170 11704 c-70 -18 -166 -65 -207 -101 l-32 -28 72 -78 72 -77 44
29 c108 72 247 79 373 19 123 -58 203 -155 234 -281 l17 -67 103 0 104 0 -6
48 c-17 143 -81 268 -190 372 -130 123 -270 181 -439 179 -49 0 -115 -7 -145
-15z"/>
<path d="M8839 11426 c-2 -2 -3 -47 -1 -100 l3 -96 105 0 104 0 0 100 0 100
-103 0 c-57 0 -106 -2 -108 -4z"/>
<path d="M9800 10165 l0 -1085 -82 0 -83 0 3 493 3 493 -100 -1 -101 0 0 -712
0 -713 138 0 138 0 38 46 c181 216 514 177 638 -74 30 -61 33 -74 33 -162 0
-82 -4 -103 -27 -152 -35 -75 -104 -142 -185 -180 -56 -27 -77 -31 -147 -31
-85 0 -158 19 -208 54 -24 18 -43 19 -220 17 l-193 -3 -3 -172 -2 -172 145 2
145 2 44 50 c175 200 508 145 624 -103 23 -48 27 -70 27 -147 0 -77 -4 -99
-27 -147 -96 -206 -339 -284 -536 -171 -42 24 -51 25 -233 26 l-189 2 0 -291
0 -290 158 -101 c203 -129 324 -199 495 -285 162 -81 140 -82 317 16 l115 64
2 1416 2 1416 -264 0 -265 0 0 890 0 890 165 0 165 0 0 69 c0 38 3 83 6 100
l7 31 -272 0 -271 0 0 -1085z"/>
<path d="M8787 10886 c-129 -47 -219 -186 -204 -318 12 -100 84 -205 166 -242
l36 -17 1 -774 1 -774 224 -234 224 -235 293 -1 293 -1 35 -35 c60 -60 108
-80 199 -80 67 0 88 5 131 27 62 33 126 103 142 156 19 62 15 160 -9 212 -25
55 -81 115 -134 142 -57 30 -167 36 -236 13 -75 -25 -151 -102 -175 -178 l-18
-57 -221 0 -221 0 -167 177 -167 177 0 728 0 728 41 21 c200 102 234 353 68
503 -27 24 -70 51 -96 60 -56 19 -154 20 -206 2z m147 -180 c105 -44 100 -190
-8 -226 -70 -23 -156 39 -156 112 0 41 26 86 63 108 38 24 57 25 101 6z m1183
-2177 c46 -44 37 -126 -18 -154 -42 -22 -75 -18 -111 14 -37 33 -43 82 -14
125 32 50 98 57 143 15z"/>
<path d="M9440 10495 l0 -275 100 0 100 0 -2 273 -3 272 -97 3 -98 3 0 -276z"/>
<path d="M7696 10664 c-101 -32 -182 -114 -207 -208 -17 -62 -6 -163 24 -221
29 -57 96 -124 145 -144 l33 -14 -1 -449 -2 -449 43 -47 c23 -26 85 -91 137
-145 l95 -99 147 1 c80 1 154 -1 163 -5 15 -5 17 -26 17 -181 l0 -174 143
-152 c78 -83 257 -271 397 -417 140 -146 302 -315 360 -376 l105 -111 258 -7
258 -7 36 -40 c52 -57 104 -81 191 -87 66 -4 78 -2 137 27 108 53 165 144 165
261 0 106 -66 207 -166 256 -49 24 -62 26 -137 22 -57 -3 -95 -11 -122 -25
-57 -30 -120 -102 -142 -162 l-18 -51 -185 0 -185 1 -109 117 c-61 64 -262
276 -448 470 l-338 352 0 530 0 530 -100 0 -100 0 0 -290 0 -290 -118 0 -117
0 -88 88 -87 87 0 411 0 410 35 17 c53 25 114 85 143 141 23 44 27 64 27 136
0 73 -4 93 -28 142 -30 62 -89 117 -151 143 -56 24 -152 28 -210 9z m176 -213
c36 -41 45 -89 23 -135 -47 -98 -191 -85 -225 20 -14 42 -8 71 21 108 29 37
55 47 109 42 34 -3 51 -11 72 -35z m2214 -2746 c40 -16 68 -70 58 -110 -8 -32
-59 -75 -89 -75 -57 0 -105 47 -105 103 0 40 52 93 93 96 4 1 23 -6 43 -14z"/>
<path d="M10767 9508 c-4 -117 -5 -629 -2 -1138 2 -509 4 -1120 4 -1357 l1
-433 68 41 c177 108 397 269 626 460 l146 121 0 1182 c0 651 -3 1217 -6 1259
l-7 77 -412 0 -412 0 -6 -212z m673 -218 l0 -50 -252 2 c-279 3 -265 0 -251
70 l6 28 248 0 249 0 0 -50z m0 -240 l0 -50 -250 0 -250 0 0 50 0 50 250 0
250 0 0 -50z m-52 -190 l53 0 -3 -47 -3 -48 -140 -3 c-77 -2 -190 0 -252 3
l-112 7 6 41 c3 23 10 46 17 50 6 4 94 6 196 3 102 -3 209 -5 238 -6z m52
-280 l0 -50 -250 0 -250 0 0 50 0 50 250 0 250 0 0 -50z m0 -240 l0 -50 -250
0 -250 0 0 50 0 50 250 0 250 0 0 -50z m0 -240 l0 -50 -250 0 -250 0 0 50 0
50 250 0 250 0 0 -50z m-2 -237 l-3 -48 -215 -3 c-118 -2 -230 0 -247 3 -31 6
-33 8 -33 50 l0 45 251 0 250 0 -3 -47z m2 -233 l0 -50 -250 0 -250 0 0 50 0
50 250 0 250 0 0 -50z"/>
<path d="M11840 8567 l1 -1142 91 95 c189 197 371 426 552 693 l86 127 0 475
0 475 -51 28 c-58 31 -399 227 -566 325 l-113 66 0 -1142z"/>
</g>
</svg>
