<svg xmlns="http://www.w3.org/2000/svg" xmlns:xlink="http://www.w3.org/1999/xlink" width="40" zoomAndPan="magnify" viewBox="0 0 30 30.000001" height="40" preserveAspectRatio="xMidYMid meet" version="1.2"><defs><clipPath id="fcbb454b84"><path d="M 0.484375 2.902344 L 29.515625 2.902344 L 29.515625 13 L 0.484375 13 Z M 0.484375 2.902344 "/></clipPath><clipPath id="082b853eb2"><path d="M 1 17 L 29 17 L 29 27.582031 L 1 27.582031 Z M 1 17 "/></clipPath><clipPath id="4fc7d66b91"><path d="M 10.839844 9.339844 L 18.824219 9.339844 L 18.824219 20.953125 L 10.839844 20.953125 Z M 10.839844 9.339844 "/></clipPath></defs><g id="7fa5ba79c8"><g clip-rule="nonzero" clip-path="url(#fcbb454b84)"><path style=" stroke:none;fill-rule:nonzero;fill:#ffffff;fill-opacity:1;" d="M 6.019531 12.714844 L 7.871094 12.714844 L 7.871094 9.183594 L 15 5.746094 L 22.152344 9.183594 L 22.152344 12.714844 L 29.515625 12.714844 L 24.714844 12.253906 L 24.714844 7.570312 L 24.507812 7.476562 L 15.160156 2.976562 L 15 2.910156 L 14.839844 2.976562 L 5.515625 7.476562 L 5.308594 7.570312 L 5.308594 12.253906 L 0.484375 12.714844 Z M 6.019531 8.03125 L 15 3.714844 L 23.980469 8.03125 L 23.980469 12.1875 L 22.871094 12.070312 L 22.871094 8.726562 L 22.664062 8.632812 L 15.160156 5.007812 L 15 4.9375 L 14.839844 5.007812 L 7.335938 8.628906 L 7.128906 8.722656 L 7.128906 12.070312 L 6.019531 12.183594 Z M 6.019531 8.03125 "/></g><g clip-rule="nonzero" clip-path="url(#082b853eb2)"><path style=" stroke:none;fill-rule:nonzero;fill:#ffffff;fill-opacity:1;" d="M 23.144531 17.632812 L 21.183594 17.632812 C 20.910156 18.324219 20.5625 18.992188 20.167969 19.617188 C 18.945312 21.625 17.167969 23.289062 14.996094 24.394531 C 12.828125 23.289062 11.074219 21.625 9.828125 19.617188 C 9.433594 18.996094 9.113281 18.324219 8.8125 17.632812 L 1.984375 17.632812 L 6.230469 18.070312 C 6.671875 19.25 7.222656 20.3125 7.871094 21.304688 C 9.648438 23.980469 12.160156 26.011719 14.863281 27.164062 L 15.003906 27.210938 L 15.140625 27.164062 C 17.84375 26.011719 20.378906 23.980469 22.132812 21.304688 C 22.804688 20.3125 23.359375 19.25 23.773438 18.070312 L 28.019531 17.632812 Z M 21.53125 20.910156 C 19.871094 23.425781 17.515625 25.316406 15 26.421875 C 12.484375 25.316406 10.128906 23.425781 8.46875 20.910156 C 7.914062 20.054688 7.429688 19.128906 7.0625 18.164062 L 8.308594 18.277344 C 8.5625 18.878906 8.863281 19.453125 9.207031 20.007812 C 10.546875 22.179688 12.484375 23.957031 14.839844 25.132812 L 15.003906 25.226562 L 15.164062 25.132812 C 17.519531 23.957031 19.453125 22.179688 20.796875 20.007812 C 21.140625 19.453125 21.441406 18.878906 21.695312 18.277344 L 22.964844 18.164062 C 22.570312 19.132812 22.085938 20.054688 21.53125 20.910156 Z M 21.53125 20.910156 "/></g><g clip-rule="nonzero" clip-path="url(#4fc7d66b91)"><path style=" stroke:none;fill-rule:nonzero;fill:#ffffff;fill-opacity:1;" d="M 14.996094 9.339844 C 13.269531 9.339844 11.878906 10.730469 11.878906 12.460938 L 11.878906 13.871094 C 11.234375 14.605469 10.839844 15.5625 10.839844 16.617188 C 10.839844 18.910156 12.699219 20.773438 14.996094 20.773438 C 17.289062 20.773438 19.152344 18.910156 19.152344 16.617188 C 19.152344 15.5625 18.757812 14.605469 18.113281 13.871094 L 18.113281 12.460938 C 18.113281 10.730469 16.722656 9.339844 14.996094 9.339844 Z M 14.996094 10.378906 C 16.179688 10.378906 17.074219 11.277344 17.074219 12.460938 L 17.074219 13.019531 C 16.460938 12.664062 15.753906 12.460938 14.996094 12.460938 C 14.238281 12.460938 13.527344 12.664062 12.917969 13.019531 L 12.917969 12.460938 C 12.917969 11.277344 13.8125 10.378906 14.996094 10.378906 Z M 14.996094 15.058594 C 15.566406 15.058594 16.035156 15.523438 16.035156 16.097656 C 16.035156 16.476562 15.824219 16.808594 15.515625 16.988281 L 15.515625 18.695312 L 14.476562 18.695312 L 14.476562 16.988281 C 14.167969 16.808594 13.957031 16.476562 13.957031 16.097656 C 13.957031 15.523438 14.425781 15.058594 14.996094 15.058594 Z M 14.996094 15.058594 "/></g></g></svg>